<svg width="1653" height="993" xmlns="http://www.w3.org/2000/svg" xmlns:xlink="http://www.w3.org/1999/xlink" overflow="hidden"><defs><clipPath id="clip0"><rect x="221" y="2795" width="1653" height="993"/></clipPath><clipPath id="clip1"><rect x="221" y="2796" width="1650" height="990"/></clipPath><clipPath id="clip2"><rect x="221" y="2796" width="1650" height="990"/></clipPath><clipPath id="clip3"><rect x="221" y="2796" width="1650" height="990"/></clipPath><clipPath id="clip4"><rect x="221" y="2796" width="1650" height="990"/></clipPath><clipPath id="clip5"><rect x="221" y="2796" width="1650" height="990"/></clipPath><clipPath id="clip6"><rect x="221" y="2796" width="1650" height="990"/></clipPath><clipPath id="clip7"><rect x="221" y="2796" width="1650" height="990"/></clipPath><clipPath id="clip8"><rect x="221" y="2796" width="1650" height="990"/></clipPath><clipPath id="clip9"><rect x="221" y="2796" width="1650" height="990"/></clipPath><clipPath id="clip10"><rect x="221" y="2796" width="1650" height="990"/></clipPath><clipPath id="clip11"><rect x="221" y="2796" width="1650" height="990"/></clipPath><clipPath id="clip12"><rect x="221" y="2796" width="1650" height="990"/></clipPath><clipPath id="clip13"><rect x="221" y="2796" width="1650" height="990"/></clipPath><clipPath id="clip14"><rect x="221" y="2796" width="1650" height="990"/></clipPath><clipPath id="clip15"><rect x="221" y="2796" width="1650" height="990"/></clipPath><clipPath id="clip16"><rect x="221" y="2796" width="1650" height="990"/></clipPath><clipPath id="clip17"><rect x="221" y="2796" width="1650" height="990"/></clipPath><clipPath id="clip18"><rect x="221" y="2796" width="1650" height="990"/></clipPath><clipPath id="clip19"><rect x="221" y="2796" width="1650" height="990"/></clipPath><clipPath id="clip20"><rect x="221" y="2796" width="1650" height="990"/></clipPath><clipPath id="clip21"><rect x="221" y="2796" width="1650" height="990"/></clipPath><clipPath id="clip22"><rect x="221" y="2796" width="1650" height="990"/></clipPath></defs><g clip-path="url(#clip0)" transform="translate(-221 -2795)"><rect x="222" y="2796" width="1650" height="990" fill="#FFFFFF"/><g clip-path="url(#clip1)"><path d="M1046.72 2966.4C1071.61 2966.4 1096.41 2969.2 1120.68 2974.74L1046.72 3298.77Z" stroke="#FFFFFF" stroke-width="6.875" stroke-linejoin="round" stroke-miterlimit="10" fill="#4472C4" fill-rule="evenodd"/></g><g clip-path="url(#clip2)"><path d="M1120.68 2974.74C1169.36 2985.85 1214.91 3007.78 1253.95 3038.91L1046.72 3298.77Z" stroke="#FFFFFF" stroke-width="6.875" stroke-linejoin="round" stroke-miterlimit="10" fill="#ED7D31" fill-rule="evenodd"/></g><g clip-path="url(#clip3)"><path d="M1253.95 3038.92C1312.82 3085.86 1354 3151.41 1370.76 3224.81L1046.72 3298.77Z" stroke="#FFFFFF" stroke-width="6.875" stroke-linejoin="round" stroke-miterlimit="10" fill="#A5A5A5" fill-rule="evenodd"/></g><g clip-path="url(#clip4)"><path d="M1370.76 3224.81C1393.26 3323.43 1369.64 3426.92 1306.58 3506L1046.72 3298.77Z" stroke="#FFFFFF" stroke-width="6.875" stroke-linejoin="round" stroke-miterlimit="10" fill="#FFC000" fill-rule="evenodd"/></g><g clip-path="url(#clip5)"><path d="M1306.58 3506C1226.97 3605.82 1097.23 3651.22 972.759 3622.81L1046.72 3298.77Z" stroke="#FFFFFF" stroke-width="6.875" stroke-linejoin="round" stroke-miterlimit="10" fill="#5B9BD5" fill-rule="evenodd"/></g><g clip-path="url(#clip6)"><path d="M972.759 3622.81C821.578 3588.31 714.348 3453.84 714.348 3298.77L1046.72 3298.77Z" stroke="#FFFFFF" stroke-width="6.875" stroke-linejoin="round" stroke-miterlimit="10" fill="#70AD47" fill-rule="evenodd"/></g><g clip-path="url(#clip7)"><path d="M714.347 3298.77C714.347 3115.21 863.155 2966.4 1046.72 2966.4L1046.72 3298.77Z" stroke="#FFFFFF" stroke-width="6.875" stroke-linejoin="round" stroke-miterlimit="10" fill="#264478" fill-rule="evenodd"/></g><g clip-path="url(#clip8)"><text fill="#595959" font-family="Calibri,Calibri_MSFontService,sans-serif" font-weight="400" font-size="64" transform="matrix(1 0 0 1 900.487 2892)">Répartition</text></g><g clip-path="url(#clip9)"><rect x="794.5" y="3708.5" width="23.0001" height="23" stroke="#FFFFFF" stroke-width="6.875" stroke-linejoin="round" stroke-miterlimit="10" fill="#4472C4"/></g><g clip-path="url(#clip10)"><text fill="#595959" font-family="Calibri,Calibri_MSFontService,sans-serif" font-weight="400" font-size="41" transform="matrix(1 0 0 1 827.242 3732)">1</text></g><g clip-path="url(#clip11)"><rect x="872.5" y="3708.5" width="23.0001" height="23" stroke="#FFFFFF" stroke-width="6.875" stroke-linejoin="round" stroke-miterlimit="10" fill="#ED7D31"/></g><g clip-path="url(#clip12)"><text fill="#595959" font-family="Calibri,Calibri_MSFontService,sans-serif" font-weight="400" font-size="41" transform="matrix(1 0 0 1 905.042 3732)">2</text></g><g clip-path="url(#clip13)"><rect x="950.5" y="3708.5" width="23.0001" height="23" stroke="#FFFFFF" stroke-width="6.875" stroke-linejoin="round" stroke-miterlimit="10" fill="#A5A5A5"/></g><g clip-path="url(#clip14)"><text fill="#595959" font-family="Calibri,Calibri_MSFontService,sans-serif" font-weight="400" font-size="41" transform="matrix(1 0 0 1 982.842 3732)">3</text></g><g clip-path="url(#clip15)"><rect x="1028.5" y="3708.5" width="23" height="23" stroke="#FFFFFF" stroke-width="6.875" stroke-linejoin="round" stroke-miterlimit="10" fill="#FFC000"/></g><g clip-path="url(#clip16)"><text fill="#595959" font-family="Calibri,Calibri_MSFontService,sans-serif" font-weight="400" font-size="41" transform="matrix(1 0 0 1 1060.64 3732)">4</text></g><g clip-path="url(#clip17)"><rect x="1106.5" y="3708.5" width="22" height="23" stroke="#FFFFFF" stroke-width="6.875" stroke-linejoin="round" stroke-miterlimit="10" fill="#5B9BD5"/></g><g clip-path="url(#clip18)"><text fill="#595959" font-family="Calibri,Calibri_MSFontService,sans-serif" font-weight="400" font-size="41" transform="matrix(1 0 0 1 1138.44 3732)">5</text></g><g clip-path="url(#clip19)"><rect x="1183.5" y="3708.5" width="23" height="23" stroke="#FFFFFF" stroke-width="6.875" stroke-linejoin="round" stroke-miterlimit="10" fill="#70AD47"/></g><g clip-path="url(#clip20)"><text fill="#595959" font-family="Calibri,Calibri_MSFontService,sans-serif" font-weight="400" font-size="41" transform="matrix(1 0 0 1 1216.24 3732)">6</text></g><g clip-path="url(#clip21)"><rect x="1261.5" y="3708.5" width="23" height="23" stroke="#FFFFFF" stroke-width="6.875" stroke-linejoin="round" stroke-miterlimit="10" fill="#264478"/></g><g clip-path="url(#clip22)"><text fill="#595959" font-family="Calibri,Calibri_MSFontService,sans-serif" font-weight="400" font-size="41" transform="matrix(1 0 0 1 1294.04 3732)">7</text></g><rect x="222.5" y="2796.5" width="1650" height="990" stroke="#D9D9D9" stroke-width="3.4375" stroke-linejoin="round" stroke-miterlimit="10" fill="none"/></g></svg>