<svg width="1653" height="993" xmlns="http://www.w3.org/2000/svg" xmlns:xlink="http://www.w3.org/1999/xlink" overflow="hidden"><defs><clipPath id="clip0"><rect x="1914" y="2878" width="1653" height="993"/></clipPath><clipPath id="clip1"><rect x="1914" y="2878" width="1650" height="990"/></clipPath><clipPath id="clip2"><rect x="1914" y="2878" width="1650" height="990"/></clipPath><clipPath id="clip3"><rect x="1914" y="2878" width="1650" height="990"/></clipPath><clipPath id="clip4"><rect x="1914" y="2878" width="1650" height="990"/></clipPath><clipPath id="clip5"><rect x="1914" y="2878" width="1650" height="990"/></clipPath><clipPath id="clip6"><rect x="1914" y="2878" width="1650" height="990"/></clipPath><clipPath id="clip7"><rect x="1914" y="2878" width="1650" height="990"/></clipPath><clipPath id="clip8"><rect x="1914" y="2878" width="1650" height="990"/></clipPath><clipPath id="clip9"><rect x="1914" y="2878" width="1650" height="990"/></clipPath><clipPath id="clip10"><rect x="1914" y="2878" width="1650" height="990"/></clipPath><clipPath id="clip11"><rect x="1914" y="2878" width="1650" height="990"/></clipPath><clipPath id="clip12"><rect x="1914" y="2878" width="1650" height="990"/></clipPath><clipPath id="clip13"><rect x="1914" y="2878" width="1650" height="990"/></clipPath></defs><g clip-path="url(#clip0)" transform="translate(-1914 -2878)"><rect x="1915" y="2879" width="1650" height="990" fill="#FFFFFF"/><g clip-path="url(#clip1)"><path d="M2739.69 3048.9C2923.25 3048.9 3072.06 3197.71 3072.06 3381.27 3072.06 3464.67 3040.71 3545.02 2984.22 3606.38L2739.69 3381.27Z" stroke="#FFFFFF" stroke-width="6.875" stroke-linejoin="round" stroke-miterlimit="10" fill="#4472C4" fill-rule="evenodd"/></g><g clip-path="url(#clip2)"><path d="M2984.22 3606.38C2859.9 3741.43 2649.63 3750.13 2514.58 3625.81 2507.84 3619.6 2501.36 3613.12 2495.15 3606.38L2739.69 3381.27Z" stroke="#FFFFFF" stroke-width="6.875" stroke-linejoin="round" stroke-miterlimit="10" fill="#ED7D31" fill-rule="evenodd"/></g><g clip-path="url(#clip3)"><path d="M2495.15 3606.38C2392.11 3494.45 2378.23 3326.85 2461.44 3199.48L2739.69 3381.27Z" stroke="#FFFFFF" stroke-width="6.875" stroke-linejoin="round" stroke-miterlimit="10" fill="#A5A5A5" fill-rule="evenodd"/></g><g clip-path="url(#clip4)"><path d="M2461.44 3199.48C2522.82 3105.53 2627.46 3048.9 2739.69 3048.9L2739.69 3381.27Z" stroke="#FFFFFF" stroke-width="6.875" stroke-linejoin="round" stroke-miterlimit="10" fill="#FFC000" fill-rule="evenodd"/></g><g clip-path="url(#clip5)"><text fill="#595959" font-family="Calibri,Calibri_MSFontService,sans-serif" font-weight="400" font-size="64" transform="matrix(1 0 0 1 2593.46 2974)">Répartition </text></g><g clip-path="url(#clip6)"><rect x="2501.5" y="3791.5" width="22" height="23" stroke="#FFFFFF" stroke-width="6.875" stroke-linejoin="round" stroke-miterlimit="10" fill="#4472C4"/></g><g clip-path="url(#clip7)"><text fill="#595959" font-family="Calibri,Calibri_MSFontService,sans-serif" font-weight="400" font-size="41" transform="matrix(1 0 0 1 2533.3 3814)">IPL</text></g><g clip-path="url(#clip8)"><rect x="2613.5" y="3791.5" width="23" height="23" stroke="#FFFFFF" stroke-width="6.875" stroke-linejoin="round" stroke-miterlimit="10" fill="#ED7D31"/></g><g clip-path="url(#clip9)"><text fill="#595959" font-family="Calibri,Calibri_MSFontService,sans-serif" font-weight="400" font-size="41" transform="matrix(1 0 0 1 2645.78 3814)">VDC</text></g><g clip-path="url(#clip10)"><rect x="2747.5" y="3791.5" width="23" height="23" stroke="#FFFFFF" stroke-width="6.875" stroke-linejoin="round" stroke-miterlimit="10" fill="#A5A5A5"/></g><g clip-path="url(#clip11)"><text fill="#595959" font-family="Calibri,Calibri_MSFontService,sans-serif" font-weight="400" font-size="41" transform="matrix(1 0 0 1 2779.96 3814)">ATN</text></g><g clip-path="url(#clip12)"><rect x="2881.5" y="3791.5" width="22.9998" height="23" stroke="#FFFFFF" stroke-width="6.875" stroke-linejoin="round" stroke-miterlimit="10" fill="#FFC000"/></g><g clip-path="url(#clip13)"><text fill="#595959" font-family="Calibri,Calibri_MSFontService,sans-serif" font-weight="400" font-size="41" transform="matrix(1 0 0 1 2913.98 3814)">ST10</text></g><rect x="1915.5" y="2879.5" width="1650" height="990" stroke="#D9D9D9" stroke-width="3.4375" stroke-linejoin="round" stroke-miterlimit="10" fill="none"/></g></svg>